<svg width="81" height="87" viewBox="0 0 81 87" fill="none" xmlns="http://www.w3.org/2000/svg">
<path d="M23.9641 42.0662L2.28818 25.3878C-0.0027683 23.6322 0.76088 20.1794 3.52176 19.4187C28.1348 12.7473 58.7395 4.49582 71.4865 1.04309C74.6586 0.165277 77.2433 3.61801 75.4222 6.25145C65.1424 20.9402 51.8079 39.9595 45.8162 48.5621L34.8314 64.2457" fill="url(#paint0_linear_71_14)"/>
<path d="M48.2834 7.30482L36.1237 24.6855C29.4271 34.2244 21.9081 44.9923 19.3822 48.6206L14.8003 55.1749" fill="url(#paint1_linear_71_14)"/>
<path d="M56.5072 74.1942L55.0974 74.6624C54.3338 74.8965 46.0511 77.5299 36.7111 80.5145C27.3711 83.499 19.4409 86.0154 19.0297 86.1325C18.6185 86.2495 16.2688 81.1582 13.8017 74.7794C11.3345 68.4006 8.74982 61.7878 8.04492 60.0322C6.69384 56.5209 10.3946 53.2437 13.9191 54.8238C14.4478 55.0579 19.3234 57.2817 24.8452 59.7981C30.367 62.3145 43.7014 68.4006 54.4513 73.3164C55.5674 73.8431 64.32 77.8225 73.8949 82.2116C77.5957 83.9087 81.414 80.1048 79.5929 76.5936C71.4278 61.027 62.9102 44.8752 60.7367 40.6617L56.7422 33.054" fill="url(#paint2_linear_71_14)"/>
<defs>
<linearGradient id="paint0_linear_71_14" x1="-1.85017" y1="37.7628" x2="103.483" y2="36.551" gradientUnits="userSpaceOnUse">
<stop stop-color="#FF8049"/>
<stop offset="1" stop-color="#FF35C6"/>
</linearGradient>
<linearGradient id="paint1_linear_71_14" x1="13.5572" y1="35.1607" x2="60.5308" y2="34.8419" gradientUnits="userSpaceOnUse">
<stop stop-color="#FF8049"/>
<stop offset="1" stop-color="#FF35C6"/>
</linearGradient>
<linearGradient id="paint2_linear_71_14" x1="5.07569" y1="63.9418" x2="106.495" y2="62.6012" gradientUnits="userSpaceOnUse">
<stop stop-color="#FF8049"/>
<stop offset="1" stop-color="#FF35C6"/>
</linearGradient>
</defs>
</svg>
